<svg xmlns="http://www.w3.org/2000/svg" width="1200" height="630" viewBox="0 0 1200 630">
  <defs>
    <linearGradient id="bg" x1="0%" y1="0%" x2="100%" y2="100%">
      <stop offset="0%" style="stop-color:#1e1b4b"/>
      <stop offset="100%" style="stop-color:#09090b"/>
    </linearGradient>
    <linearGradient id="accent" x1="0%" y1="0%" x2="100%" y2="0%">
      <stop offset="0%" style="stop-color:#818cf8"/>
      <stop offset="100%" style="stop-color:#2dd4bf"/>
    </linearGradient>
  </defs>
  <rect width="1200" height="630" fill="url(#bg)"/>
  <circle cx="900" cy="120" r="300" fill="#818cf8" opacity="0.04"/>
  <rect x="80" y="80" width="1040" height="470" rx="24" fill="none" stroke="rgba(255,255,255,0.06)" stroke-width="1"/>
  <g transform="translate(540,200)">
    <rect x="-50" y="-35" width="100" height="70" rx="12" fill="#818cf8" opacity="0.12" stroke="#818cf8" stroke-width="1" opacity="0.3"/>
    <text x="0" y="5" text-anchor="middle" fill="#818cf8" font-family="system-ui" font-size="24" font-weight="600">AD</text>
    <line x1="50" y1="0" x2="90" y2="0" stroke="#818cf8" stroke-width="1.5" stroke-dasharray="4,4" opacity="0.5"/>
    <path d="M90,-20 L110,0 L90,20" fill="none" stroke="#2dd4bf" stroke-width="1.5" opacity="0.6"/>
    <rect x="110" y="-35" width="80" height="70" rx="12" fill="#2dd4bf" opacity="0.12" stroke="#2dd4bf" stroke-width="1" opacity="0.3"/>
    <text x="150" y="-5" text-anchor="middle" fill="#2dd4bf" font-family="system-ui" font-size="14" font-weight="600">Azure</text>
    <text x="150" y="15" text-anchor="middle" fill="#2dd4bf" font-family="system-ui" font-size="12">Entra ID</text>
  </g>
  <text x="600" y="320" text-anchor="middle" fill="#f4f4f5" font-family="system-ui, sans-serif" font-size="32" font-weight="600">Hybrid Identity Sync</text>
  <text x="600" y="360" text-anchor="middle" fill="#818cf8" font-family="system-ui, sans-serif" font-size="18">Local AD to Azure Entra ID</text>
  <text x="600" y="420" text-anchor="middle" fill="#71717a" font-family="system-ui, sans-serif" font-size="14">Windows Server · Active Directory · Azure AD Connect</text>
  <rect x="460" y="450" width="280" height="3" rx="1.5" fill="rgba(255,255,255,0.06)"/>
  <rect x="460" y="450" width="56" height="3" rx="1.5" fill="url(#accent)"/>
</svg>
