<svg xmlns="http://www.w3.org/2000/svg" width="1200" height="630" viewBox="0 0 1200 630">
  <defs>
    <linearGradient id="bg" x1="0%" y1="0%" x2="100%" y2="100%">
      <stop offset="0%" style="stop-color:#0a1628"/>
      <stop offset="100%" style="stop-color:#09090b"/>
    </linearGradient>
    <linearGradient id="accent" x1="0%" y1="0%" x2="100%" y2="0%">
      <stop offset="0%" style="stop-color:#06b6d4"/>
      <stop offset="100%" style="stop-color:#2dd4bf"/>
    </linearGradient>
  </defs>
  <rect width="1200" height="630" fill="url(#bg)"/>
  <circle cx="900" cy="200" r="280" fill="#06b6d4" opacity="0.03"/>
  <rect x="80" y="80" width="1040" height="470" rx="24" fill="none" stroke="rgba(255,255,255,0.06)" stroke-width="1"/>
  <g transform="translate(540,190)">
    <rect x="-45" y="-30" width="90" height="60" rx="8" fill="#06b6d4" opacity="0.1" stroke="#06b6d4" stroke-width="1.5"/>
    <text x="0" y="-5" text-anchor="middle" fill="#06b6d4" font-family="monospace" font-size="11" font-weight="600">ESP32</text>
    <text x="0" y="12" text-anchor="middle" fill="#06b6d4" font-family="monospace" font-size="9" opacity="0.6">v3.0</text>
    <line x1="0" y1="30" x2="0" y2="60" stroke="#06b6d4" stroke-width="1" opacity="0.4"/>
    <line x1="-15" y1="30" x2="-15" y2="55" stroke="#06b6d4" stroke-width="1" opacity="0.3"/>
    <line x1="15" y1="30" x2="15" y2="55" stroke="#06b6d4" stroke-width="1" opacity="0.3"/>
    <circle cx="0" cy="65" r="3" fill="#22c55e" opacity="0.6"/>
    <circle cx="-15" cy="60" r="3" fill="#f59e0b" opacity="0.6"/>
    <circle cx="15" cy="60" r="3" fill="#ef4444" opacity="0.6"/>
    <text x="0" y="82" text-anchor="middle" fill="#71717a" font-family="system-ui" font-size="9">MQTT</text>
    <path d="M0,90 Q0,110 0,120" fill="none" stroke="#06b6d4" stroke-width="1" opacity="0.3" stroke-dasharray="3,3"/>
    <text x="0" y="138" text-anchor="middle" fill="#06b6d4" font-family="system-ui" font-size="11" font-weight="600">Azure IoT Hub</text>
  </g>
  <text x="600" y="380" text-anchor="middle" fill="#f4f4f5" font-family="system-ui, sans-serif" font-size="32" font-weight="600">Cloud-Connected Hardware</text>
  <text x="600" y="420" text-anchor="middle" fill="#06b6d4" font-family="system-ui, sans-serif" font-size="18">&amp; IoT Monitor</text>
  <text x="600" y="470" text-anchor="middle" fill="#71717a" font-family="system-ui, sans-serif" font-size="14">Python/C++ · IoT Hub · ESP32 · MQTT · WebSockets</text>
  <rect x="460" y="495" width="280" height="3" rx="1.5" fill="rgba(255,255,255,0.06)"/>
  <rect x="460" y="495" width="98" height="3" rx="1.5" fill="url(#accent)"/>
</svg>
