<svg xmlns="http://www.w3.org/2000/svg" width="1200" height="630" viewBox="0 0 1200 630">
  <defs>
    <linearGradient id="bg" x1="0%" y1="0%" x2="100%" y2="100%">
      <stop offset="0%" style="stop-color:#0f172a"/>
      <stop offset="100%" style="stop-color:#09090b"/>
    </linearGradient>
    <linearGradient id="accent" x1="0%" y1="0%" x2="100%" y2="0%">
      <stop offset="0%" style="stop-color:#2dd4bf"/>
      <stop offset="100%" style="stop-color:#34d399"/>
    </linearGradient>
  </defs>
  <rect width="1200" height="630" fill="url(#bg)"/>
  <circle cx="200" cy="150" r="300" fill="#2dd4bf" opacity="0.04"/>
  <circle cx="1000" cy="500" r="250" fill="#34d399" opacity="0.04"/>
  <rect x="80" y="80" width="1040" height="470" rx="24" fill="none" stroke="rgba(255,255,255,0.06)" stroke-width="1"/>
  <g transform="translate(540,200)">
    <rect x="-40" y="-40" width="80" height="80" rx="16" fill="#2dd4bf" opacity="0.15"/>
    <circle cx="0" cy="0" r="20" fill="none" stroke="#2dd4bf" stroke-width="2"/>
    <line x1="-10" y1="0" x2="10" y2="0" stroke="#2dd4bf" stroke-width="2"/>
    <line x1="0" y1="-10" x2="0" y2="10" stroke="#2dd4bf" stroke-width="2"/>
    <circle cx="-25" cy="-25" r="4" fill="#34d399" opacity="0.6"/>
    <circle cx="25" cy="-25" r="4" fill="#34d399" opacity="0.6"/>
    <circle cx="-25" cy="25" r="4" fill="#34d399" opacity="0.6"/>
    <circle cx="25" cy="25" r="4" fill="#34d399" opacity="0.6"/>
    <line x1="-25" y1="-25" x2="-10" y2="0" stroke="#2dd4bf" stroke-width="1" opacity="0.4"/>
    <line x1="25" y1="-25" x2="10" y2="0" stroke="#2dd4bf" stroke-width="1" opacity="0.4"/>
    <line x1="-25" y1="25" x2="-10" y2="0" stroke="#2dd4bf" stroke-width="1" opacity="0.4"/>
    <line x1="25" y1="25" x2="10" y2="0" stroke="#2dd4bf" stroke-width="1" opacity="0.4"/>
  </g>
  <text x="600" y="320" text-anchor="middle" fill="#f4f4f5" font-family="system-ui, sans-serif" font-size="32" font-weight="600">Automated Hybrid Network</text>
  <text x="600" y="360" text-anchor="middle" fill="#2dd4bf" font-family="system-ui, sans-serif" font-size="18">&amp; Monitoring Dashboard</text>
  <text x="600" y="420" text-anchor="middle" fill="#71717a" font-family="system-ui, sans-serif" font-size="14">Ansible · Python · Active Directory · Streamlit</text>
  <rect x="460" y="450" width="280" height="3" rx="1.5" fill="rgba(255,255,255,0.06)"/>
  <rect x="460" y="450" width="112" height="3" rx="1.5" fill="url(#accent)"/>
</svg>
