<svg xmlns="http://www.w3.org/2000/svg" width="1200" height="630" viewBox="0 0 1200 630">
  <defs>
    <linearGradient id="bg" x1="0%" y1="0%" x2="100%" y2="100%">
      <stop offset="0%" style="stop-color:#1a0f2e"/>
      <stop offset="100%" style="stop-color:#09090b"/>
    </linearGradient>
    <linearGradient id="accent" x1="0%" y1="0%" x2="100%" y2="0%">
      <stop offset="0%" style="stop-color:#a78bfa"/>
      <stop offset="100%" style="stop-color:#818cf8"/>
    </linearGradient>
  </defs>
  <rect width="1200" height="630" fill="url(#bg)"/>
  <circle cx="200" cy="400" r="250" fill="#a78bfa" opacity="0.03"/>
  <rect x="80" y="80" width="1040" height="470" rx="24" fill="none" stroke="rgba(255,255,255,0.06)" stroke-width="1"/>
  <g transform="translate(540,190)">
    <rect x="-80" y="-40" width="160" height="80" rx="12" fill="#a78bfa" opacity="0.08" stroke="#a78bfa" stroke-width="1"/>
    <text x="0" y="-10" text-anchor="middle" fill="#a78bfa" font-family="monospace" font-size="14" font-weight="600">&gt; python</text>
    <text x="0" y="10" text-anchor="middle" fill="#818cf8" font-family="monospace" font-size="11">learn()</text>
    <text x="0" y="25" text-anchor="middle" fill="#71717a" font-family="monospace" font-size="9">print("Hello World!")</text>
    <circle cx="-100" cy="50" r="15" fill="#a78bfa" opacity="0.15"/>
    <text x="-100" y="54" text-anchor="middle" fill="#a78bfa" font-family="system-ui" font-size="10">1</text>
    <circle cx="-50" cy="50" r="15" fill="#818cf8" opacity="0.15"/>
    <text x="-50" y="54" text-anchor="middle" fill="#818cf8" font-family="system-ui" font-size="10">2</text>
    <circle cx="0" cy="50" r="15" fill="#2dd4bf" opacity="0.15"/>
    <text x="0" y="54" text-anchor="middle" fill="#2dd4bf" font-family="system-ui" font-size="10">3</text>
    <circle cx="50" cy="50" r="15" fill="#71717a" opacity="0.15"/>
    <text x="50" y="54" text-anchor="middle" fill="#71717a" font-family="system-ui" font-size="10">4</text>
    <circle cx="100" cy="50" r="15" fill="#71717a" opacity="0.1"/>
    <text x="100" y="54" text-anchor="middle" fill="#71717a" font-family="system-ui" font-size="10">5</text>
  </g>
  <text x="600" y="330" text-anchor="middle" fill="#f4f4f5" font-family="system-ui, sans-serif" font-size="36" font-weight="600">PyFlow</text>
  <text x="600" y="370" text-anchor="middle" fill="#a78bfa" font-family="system-ui, sans-serif" font-size="18">Python Learning Platform</text>
  <text x="600" y="420" text-anchor="middle" fill="#71717a" font-family="system-ui, sans-serif" font-size="14">React · Tailwind CSS · Django · PostgreSQL · Docker · OpenAI API</text>
  <rect x="460" y="450" width="280" height="3" rx="1.5" fill="rgba(255,255,255,0.06)"/>
  <rect x="460" y="450" width="168" height="3" rx="1.5" fill="url(#accent)"/>
</svg>
