<svg xmlns="http://www.w3.org/2000/svg" width="1200" height="630" viewBox="0 0 1200 630">
  <defs>
    <linearGradient id="bg" x1="0%" y1="0%" x2="100%" y2="100%">
      <stop offset="0%" style="stop-color:#0c1222"/>
      <stop offset="100%" style="stop-color:#09090b"/>
    </linearGradient>
    <linearGradient id="accent" x1="0%" y1="0%" x2="100%" y2="0%">
      <stop offset="0%" style="stop-color:#f59e0b"/>
      <stop offset="100%" style="stop-color:#ef4444"/>
    </linearGradient>
  </defs>
  <rect width="1200" height="630" fill="url(#bg)"/>
  <circle cx="300" cy="500" r="250" fill="#f59e0b" opacity="0.03"/>
  <rect x="80" y="80" width="1040" height="470" rx="24" fill="none" stroke="rgba(255,255,255,0.06)" stroke-width="1"/>
  <g transform="translate(540,190)">
    <circle cx="0" cy="0" r="35" fill="#f59e0b" opacity="0.12" stroke="#f59e0b" stroke-width="1.5"/>
    <path d="M-12,-8 L0,-20 L12,-8 L8,8 L-8,8 Z" fill="none" stroke="#f59e0b" stroke-width="1.5"/>
    <circle cx="0" cy="0" r="5" fill="#f59e0b" opacity="0.6"/>
    <path d="M-60,30 Q-30,50 0,30 Q30,50 60,30" fill="none" stroke="#ef4444" stroke-width="1" opacity="0.3" stroke-dasharray="4,4"/>
    <circle cx="-50" cy="40" r="6" fill="#ef4444" opacity="0.4"/>
    <circle cx="50" cy="40" r="6" fill="#22c55e" opacity="0.4"/>
    <text x="-50" y="58" text-anchor="middle" fill="#ef4444" font-family="system-ui" font-size="8" opacity="0.6">DOWN</text>
    <text x="50" y="58" text-anchor="middle" fill="#22c55e" font-family="system-ui" font-size="8" opacity="0.6">UP</text>
  </g>
  <text x="600" y="320" text-anchor="middle" fill="#f4f4f5" font-family="system-ui, sans-serif" font-size="32" font-weight="600">Serverless Network Sentinel Bot</text>
  <text x="600" y="360" text-anchor="middle" fill="#f59e0b" font-family="system-ui, sans-serif" font-size="18">Event-driven outage alerts to chat ops</text>
  <text x="600" y="420" text-anchor="middle" fill="#71717a" font-family="system-ui, sans-serif" font-size="14">Python · Serverless · REST APIs · Telegram Bot API</text>
  <rect x="460" y="450" width="280" height="3" rx="1.5" fill="rgba(255,255,255,0.06)"/>
  <rect x="460" y="450" width="84" height="3" rx="1.5" fill="url(#accent)"/>
</svg>
